<?xml version="1.0" encoding="utf-8"?>
<!-- Generator: Adobe Illustrator 18.0.0, SVG Export Plug-In . SVG Version: 6.00 Build 0)  -->
<!DOCTYPE svg PUBLIC "-//W3C//DTD SVG 1.1//EN" "http://www.w3.org/Graphics/SVG/1.1/DTD/svg11.dtd">
<svg version="1.1" id="Layer_1" xmlns="http://www.w3.org/2000/svg" xmlns:xlink="http://www.w3.org/1999/xlink" x="0px" y="0px"
	 viewBox="0 0 14 14" enable-background="new 0 0 14 14" xml:space="preserve">
<g>
	<g>
		<path fill="none" d="M2.6,11.5"/>
		<path fill="#E2B881" d="M4,12.7l-1.9,0.5l0,0c0,0,0.7-1.8-1.2-1.2l0.5-1.8L4,12.7z"/>
		<path fill="#303030" d="M2.1,13.2l-2,0.7L0.8,12C2.6,11.6,2.1,13.2,2.1,13.2L2.1,13.2z"/>
		<path fill="#DF7C98" d="M10.1,2.1c0,0,0.8-0.7,1-1c0,0,0.4-0.4,1.1,0.1l1.3,1.2c0.7,0.5,0.2,1.1,0.2,1.1l-1,1"/>
		<polygon fill="#F4D300" points="1.4,10.4 9.3,2.8 12,5.2 4,12.7 		"/>
		<path fill="none" stroke="#FFFFFF" stroke-miterlimit="10" d="M2.9,10.1"/>
		<path fill="none" stroke="#FFFFFF" stroke-miterlimit="10" d="M9.6,3.9"/>
		<line fill="none" x1="4.2" y1="11.2" x2="10.8" y2="5"/>
		<path fill="none" d="M0.8,12L0.8,12"/>
		<polygon fill="#BDCCD4" points="9.3,2.8 10.1,2.1 12.6,4.5 12,5.2 		"/>
	</g>
	<line fill="none" x1="2.6" y1="10" x2="9.3" y2="3.9"/>
</g>
</svg>
